HIERARCHY
ROOT Hips
{
	OFFSET 0.000000 0.000000 0.000000
	CHANNELS 6 Xposition Yposition Zposition Xrotation Yrotation Zrotation
	JOINT LeftUpLeg_virtual
	{
		OFFSET 0.000000 0.000000 0.000000
		CHANNELS 3 Xrotation Yrotation Zrotation
		JOINT LeftUpLeg
		{
			OFFSET 15.427100 -6.655098 0.678600
			CHANNELS 3 Xrotation Yrotation Zrotation
			JOINT LeftLeg
			{
				OFFSET 4.081073 -39.591068 13.024000
				CHANNELS 3 Xrotation Yrotation Zrotation
				JOINT LeftFoot
				{
					OFFSET -4.081074 -37.707932 -15.979700
					CHANNELS 3 Xrotation Yrotation Zrotation
					JOINT LeftToeBase
					{
						OFFSET 5.346399 -15.068900 20.645000
						CHANNELS 3 Xrotation Yrotation Zrotation
						JOINT LeftToe_End
						{
							OFFSET 2.754700 0.931300 11.300900
							CHANNELS 3 Xrotation Yrotation Zrotation
							End Site
							{
								OFFSET 0 0 0
							}
						}
					}
				}
			}
		}
	}
	JOINT RightUpLeg_virtual
	{
		OFFSET 0.000000 0.000000 0.000000
		CHANNELS 3 Xrotation Yrotation Zrotation
		JOINT RightUpLeg
		{
			OFFSET -15.569500 -6.655098 0.678600
			CHANNELS 3 Xrotation Yrotation Zrotation
			JOINT RightLeg
			{
				OFFSET -4.081825 -39.591045 13.023800
				CHANNELS 3 Xrotation Yrotation Zrotation
				JOINT RightFoot
				{
					OFFSET 4.081824 -37.707954 -15.979600
					CHANNELS 3 Xrotation Yrotation Zrotation
					JOINT RightToeBase
					{
						OFFSET -5.346400 -15.068900 20.645000
						CHANNELS 3 Xrotation Yrotation Zrotation
						JOINT RightToe_End
						{
							OFFSET -2.754700 0.931300 11.300900
							CHANNELS 3 Xrotation Yrotation Zrotation
							End Site
							{
								OFFSET 0 0 0
							}
						}
					}
				}
			}
		}
	}
	JOINT Spine_virtual
	{
		OFFSET 0.000000 0.000000 0.000000
		CHANNELS 3 Xrotation Yrotation Zrotation
		JOINT Spine
		{
			OFFSET -0.279200 12.230698 -2.892100
			CHANNELS 3 Xrotation Yrotation Zrotation
			JOINT Spine1
			{
				OFFSET -0.232667 10.192268 -1.242267
				CHANNELS 3 Xrotation Yrotation Zrotation
				JOINT Spine1_split
				{
					OFFSET -0.232667 10.192268 -1.242267
					CHANNELS 3 Xrotation Yrotation Zrotation
					JOINT Spine2
					{
						OFFSET -0.232667 10.192268 -1.242267
						CHANNELS 3 Xrotation Yrotation Zrotation
						JOINT Neck_virtual
						{
							OFFSET 0.000000 0.000000 0.000000
							CHANNELS 3 Xrotation Yrotation Zrotation
							JOINT Neck
							{
								OFFSET -0.418800 17.814194 8.416900
								CHANNELS 3 Xrotation Yrotation Zrotation
								JOINT Head
								{
									OFFSET 0.000000 7.031097 3.806800
									CHANNELS 3 Xrotation Yrotation Zrotation
									JOINT HeadTop_End
									{
										OFFSET 0.000000 24.646606 12.978600
										CHANNELS 3 Xrotation Yrotation Zrotation
										End Site
										{
											OFFSET 0 0 0
										}
									}
								}
							}
						}
						JOINT LeftShoulder_virtual
						{
							OFFSET 0.000000 0.000000 0.000000
							CHANNELS 3 Xrotation Yrotation Zrotation
							JOINT LeftShoulder
							{
								OFFSET 8.476499 7.247704 -3.868750
								CHANNELS 3 Xrotation Yrotation Zrotation
								JOINT LeftShoulder_split
								{
									OFFSET 8.476499 7.247704 -3.868750
									CHANNELS 3 Xrotation Yrotation Zrotation
									JOINT LeftArm
									{
										OFFSET 9.308998 -2.777710 0.208600
										CHANNELS 3 Xrotation Yrotation Zrotation
										JOINT LeftForeArm
										{
											OFFSET 29.972298 0.000000 0.000000
											CHANNELS 3 Xrotation Yrotation Zrotation
											JOINT LeftHand
											{
												OFFSET 26.026505 0.000000 0.000000
												CHANNELS 3 Xrotation Yrotation Zrotation
												End Site
												{
													OFFSET 0 0 0
												}
											}
										}
									}
								}
							}
						}
						JOINT RightShoulder_virtual
						{
							OFFSET 0.000000 0.000000 0.000000
							CHANNELS 3 Xrotation Yrotation Zrotation
							JOINT RightShoulder
							{
								OFFSET -7.570500 7.247704 -3.868750
								CHANNELS 3 Xrotation Yrotation Zrotation
								JOINT RightShoulder_split
								{
									OFFSET -7.570500 7.247704 -3.868750
									CHANNELS 3 Xrotation Yrotation Zrotation
									JOINT RightArm
									{
										OFFSET -9.308998 -2.777710 0.208500
										CHANNELS 3 Xrotation Yrotation Zrotation
										JOINT RightForeArm
										{
											OFFSET -29.972300 0.000000 0.000000
											CHANNELS 3 Xrotation Yrotation Zrotation
											JOINT RightHand
											{
												OFFSET -26.026505 0.000000 0.000000
												CHANNELS 3 Xrotation Yrotation Zrotation
												End Site
												{
													OFFSET 0 0 0
												}
											}
										}
									}
								}
							}
						}
					}
				}
			}
		}
	}
}
MOTION
Frames: 7
Frame Time: 0.03333333
8.303344 79.722763 31.053371 0.000000 0.000000 0.000000 20.305242 2.391605 -2.352881 -80.041737 25.006414 10.413440 111.655431 1.549057 -3.432296 2.844616 11.037649 -2.857347 -7.597725 -1.166360 4.569262 0.000000 0.000000 0.000000 13.526383 -4.331016 -0.148533 -25.763924 -11.021310 2.679158 33.176281 11.866512 -2.876025 -33.366529 -11.580205 -2.132435 -8.369473 2.045949 -0.809990 0.000000 0.000000 0.000000 18.576977 -5.507301 -0.675207 5.406006 2.784441 2.081881 7.567640 0.154342 -1.411057 0.682991 2.107636 -1.094703 0.000000 0.000000 0.000000 2.960293 0.351537 -1.934016 -0.087501 1.417100 -4.874369 -11.620363 11.690133 0.953118 0.000000 0.000000 0.000000 5.047622 -0.195358 -1.682995 -0.250378 -12.002721 -4.039294 1.427825 7.179085 -2.846351 9.194015 -10.323352 -48.911937 3.781724 -78.052943 3.706306 0.000000 0.000000 0.000000 5.121758 0.969085 -0.510969 2.760856 5.410858 16.355259 10.647713 0.238693 -4.943580 0.224923 30.252861 21.301014 165.197605 75.239130 -169.240094 0.000000 0.000000 0.000000 
6.574968 78.781609 42.164150 0.000000 0.000000 0.000000 17.083659 -1.524746 -3.199632 -85.315797 25.067896 14.596806 101.551232 2.641059 -4.697251 1.317839 9.275981 -5.113079 -5.132524 -1.119845 5.288758 0.000000 0.000000 0.000000 12.689271 -5.932086 -0.990988 -18.364198 -10.378922 3.188295 37.090362 11.138929 -2.726539 -35.485889 -9.334897 -3.557544 -1.375265 2.315060 -1.019307 0.000000 0.000000 0.000000 17.103567 -4.700766 -2.462675 5.879552 3.488832 1.872532 7.558666 -0.028123 -1.537754 1.277942 2.598339 -1.250007 0.000000 0.000000 0.000000 2.291183 0.508269 -1.983557 -0.070349 0.915905 -4.883118 -11.967656 12.402299 1.828619 0.000000 0.000000 0.000000 4.896127 0.065413 -1.515055 -0.242981 -9.123426 -4.124414 2.655221 8.170396 -3.110371 15.761770 -8.541770 -48.573901 1.295838 -77.144569 0.926621 0.000000 0.000000 0.000000 4.781700 0.963557 -0.692765 2.550347 4.583563 16.305526 9.228522 -2.967992 -3.899283 -3.265807 27.123962 25.616099 173.302677 73.556493 -177.542038 0.000000 0.000000 0.000000 
4.621784 77.544998 55.069607 0.000000 0.000000 0.000000 12.186522 -5.522415 -4.668894 -87.155550 21.776453 16.044823 89.765105 3.084424 -4.691038 -1.894963 7.097157 -7.994637 -2.556284 -1.087836 4.625128 0.000000 0.000000 0.000000 10.605047 -5.409777 -3.173115 -9.757256 -9.194488 4.748648 42.865878 9.180898 -3.162461 -34.807959 -6.683648 -5.504111 -1.537279 2.828447 -1.921553 0.000000 0.000000 0.000000 14.220786 -4.190498 -4.757981 6.222386 4.848381 1.914009 7.443880 0.127649 -1.424290 1.156608 2.604445 -0.432548 0.000000 0.000000 0.000000 2.233907 0.927107 -1.881333 -0.500866 -0.343897 -4.563961 -11.793234 10.819977 2.439903 0.000000 0.000000 0.000000 4.924807 0.607886 -1.228563 -0.057207 -5.642786 -4.206813 3.851979 7.689523 -3.032581 21.092334 -5.433932 -49.400470 -3.713993 -76.653246 -4.365156 0.000000 0.000000 0.000000 4.605776 1.245739 -0.886672 2.258490 3.793851 17.146722 7.975528 -4.067311 -3.263267 -8.254434 20.529202 31.166846 -177.258258 73.917550 172.918055 0.000000 0.000000 0.000000 
3.091591 75.861382 67.765549 0.000000 0.000000 0.000000 6.391276 -7.368694 -6.258330 -83.619773 16.827431 14.278156 79.875593 3.202502 -3.878928 -6.035655 5.649525 -9.635686 -0.783238 -1.175243 2.987659 0.000000 0.000000 0.000000 8.297368 -3.786413 -5.573729 -2.182032 -7.713273 6.543666 49.482193 6.461126 -3.791524 -30.461042 -4.388633 -7.735814 -10.694818 3.292207 -3.068284 0.000000 0.000000 0.000000 9.096764 -3.112985 -6.881317 6.288899 6.399850 2.011326 7.118937 0.587104 -1.228455 1.208815 1.813316 0.520761 0.000000 0.000000 0.000000 2.513456 1.454574 -1.727922 -0.924555 -1.787688 -4.270653 -10.910756 7.412884 2.673775 0.000000 0.000000 0.000000 4.877809 1.267028 -0.994427 0.281351 -2.752700 -4.501654 4.904030 5.227292 -3.608797 23.537752 -2.529476 -50.720169 -9.213118 -76.123544 -9.883613 0.000000 0.000000 0.000000 4.613777 1.619629 -1.168995 2.043805 3.372369 18.729197 6.615945 -2.750831 -3.005744 -10.773230 13.226266 35.134145 -161.968101 78.118458 157.795429 0.000000 0.000000 0.000000 
2.198960 74.376190 79.847260 0.000000 0.000000 0.000000 0.411006 -7.408761 -7.187328 -74.482919 11.924611 10.629416 72.497335 3.465685 -3.294959 -10.307780 4.905482 -9.031333 -0.868721 -1.231041 1.179202 0.000000 0.000000 0.000000 4.613252 -2.126863 -7.394000 -0.447253 -8.099922 5.977958 60.769614 5.775524 -3.451025 -16.762469 -2.648871 -7.379482 -15.777073 3.087728 -3.341041 0.000000 0.000000 0.000000 2.600866 -1.359258 -7.728750 6.192584 7.462673 1.821178 6.613598 1.169813 -1.137409 0.692708 0.814192 1.099146 0.000000 0.000000 0.000000 2.656403 1.806317 -1.576022 -0.848792 -3.059132 -4.109379 -8.740549 3.208234 2.563910 0.000000 0.000000 0.000000 4.544778 1.740000 -0.923305 0.726670 -1.666696 -5.405439 5.497236 1.977119 -4.591688 21.978306 -0.722705 -51.739690 -11.519994 -73.994130 -11.911601 0.000000 0.000000 0.000000 4.685373 1.881411 -1.476991 1.805746 3.796103 20.575424 5.532986 0.562736 -2.265521 -9.395712 8.794466 37.106300 -89.107563 84.062977 85.422512 0.000000 0.000000 0.000000 
2.015422 74.164032 89.842300 0.000000 0.000000 0.000000 -5.477426 -6.502935 -6.955356 -59.607238 7.716194 6.470699 66.454640 3.814916 -3.452239 -13.256464 4.433905 -6.228102 -4.129943 -1.124961 -0.227372 0.000000 0.000000 0.000000 -2.392958 -0.458390 -8.265997 -7.654852 -11.084078 2.143559 75.887664 7.260257 -2.374588 4.989641 -1.021704 -5.464066 -5.898020 2.028888 -1.994899 0.000000 0.000000 0.000000 -4.869689 -0.633037 -6.884803 6.120434 7.466338 1.014019 6.032719 1.523644 -1.200913 -0.412763 0.562594 1.002430 0.000000 0.000000 0.000000 2.307284 1.786274 -1.434307 0.000347 -3.740653 -4.048819 -4.564831 -0.236826 2.433746 0.000000 0.000000 0.000000 3.933298 1.777519 -1.092681 1.113256 -3.128685 -7.093945 5.110835 -1.009204 -5.888522 16.541566 -0.342136 -51.639714 -9.694514 -68.526994 -9.440637 0.000000 0.000000 0.000000 4.687878 1.847343 -1.759165 1.443515 5.336671 22.061345 4.510759 3.711083 -1.655698 -4.137049 10.491824 36.922797 -22.134456 71.570540 19.163573 0.000000 0.000000 0.000000 
2.292220 75.576256 98.204910 0.000000 0.000000 0.000000 -11.749300 -5.355028 -6.047324 -40.679633 5.128605 3.002023 59.530501 4.453235 -4.477143 -14.548252 4.002222 -2.810083 -8.070750 -0.696392 -1.160931 0.000000 0.000000 0.000000 -10.710601 1.465698 -7.609065 -19.808134 -14.568068 -2.886982 87.077979 7.206843 -0.501147 21.786881 -0.294200 -6.091665 6.300199 1.111273 -0.289109 0.000000 0.000000 0.000000 -12.749657 -0.472598 -5.419585 6.049446 6.242860 -0.288143 5.468587 1.378442 -1.294934 -0.494735 0.208539 -0.267665 0.000000 0.000000 0.000000 1.431721 1.267841 -1.288900 1.166132 -3.694168 -3.962460 1.690606 -2.130331 2.585215 0.000000 0.000000 0.000000 3.197421 1.267996 -1.317121 1.232862 -7.356548 -9.514518 3.740744 -2.307128 -6.728629 8.576960 -1.633980 -50.143964 -6.585371 -59.572486 -5.658331 0.000000 0.000000 0.000000 4.507256 1.427760 -1.921627 0.831736 7.742431 22.654800 2.596875 4.675195 -1.058448 3.953287 18.877092 33.727740 -10.634425 54.179075 8.283386 0.000000 0.000000 0.000000 
